<?xml version="1.0" encoding="UTF-8"?>
<svg width="22px" height="15px" viewBox="0 0 22 15" version="1.1" xmlns="http://www.w3.org/2000/svg" xmlns:xlink="http://www.w3.org/1999/xlink">
    <!-- Generator: Sketch 55.2 (78181) - https://sketchapp.com -->
    <title>Nav-icon-missing-card-24</title>
    <desc>Created with Sketch.</desc>
    <g id="Page-Icons" stroke="none" stroke-width="1" fill="none" fill-rule="evenodd">
        <g id="-Navigation-&amp;-Search" transform="translate(-366.000000, -162.000000)">
            <g id="Nav-icon-missing-card-24" transform="translate(365.000000, 157.000000)">
                <rect id="Rectangle-Copy-2" x="0" y="0" width="24" height="24"></rect>
                <g id="Report-Missing-Card">
                    <rect id="Rectangle" x="0" y="0" width="24" height="24"></rect>
                    <g id="credit-card" transform="translate(1.000000, 5.000000)" fill="#B1ADA6">
                        <path d="M14.939,7.507 C14.714,7.847 14.582,8.254 14.582,8.694 C14.582,9.132 14.714,9.539 14.939,9.88 C15.166,9.539 15.297,9.132 15.297,8.694 C15.297,8.254 15.166,7.847 14.939,7.507 L14.939,7.507 Z M13.15,6.545 C11.965,6.545 11.001,7.508 11.001,8.694 C11.001,9.878 11.965,10.841 13.15,10.841 C13.522,10.841 13.873,10.746 14.178,10.579 C13.788,10.051 13.556,9.399 13.556,8.694 C13.556,7.987 13.788,7.335 14.178,6.808 C13.873,6.64 13.522,6.545 13.15,6.545 L13.15,6.545 Z M15.702,10.579 C16.006,10.746 16.357,10.841 16.73,10.841 C17.915,10.841 18.878,9.878 18.878,8.694 C18.878,7.508 17.915,6.545 16.73,6.545 C16.357,6.545 16.006,6.64 15.702,6.808 C16.092,7.335 16.324,7.987 16.324,8.694 C16.324,9.399 16.092,10.051 15.702,10.579 L15.702,10.579 Z M16.73,11.866 C16.066,11.866 15.45,11.662 14.939,11.313 C14.429,11.662 13.814,11.866 13.15,11.866 C11.399,11.866 9.976,10.443 9.976,8.694 C9.976,6.943 11.399,5.52 13.15,5.52 C13.814,5.52 14.429,5.724 14.939,6.074 C15.45,5.724 16.066,5.52 16.73,5.52 C18.479,5.52 19.904,6.943 19.904,8.694 C19.904,10.443 18.479,11.866 16.73,11.866 L16.73,11.866 Z M2.509,1.025 C1.691,1.025 1.025,1.691 1.025,2.509 L1.025,11.847 C1.025,12.665 1.691,13.331 2.509,13.331 L19.49,13.331 C20.308,13.331 20.974,12.665 20.974,11.847 L20.974,2.509 C20.974,1.691 20.308,1.025 19.49,1.025 L2.509,1.025 Z M19.49,14.357 L2.509,14.357 C1.125,14.357 0,13.231 0,11.847 L0,2.509 C0,1.125 1.125,0 2.509,0 L19.49,0 C20.874,0 22,1.125 22,2.509 L22,11.847 C22,13.231 20.874,14.357 19.49,14.357 L19.49,14.357 Z" id="icon"></path>
                    </g>
                </g>
            </g>
        </g>
    </g>
</svg>