<?xml version="1.0" encoding="UTF-8"?>
<svg width="22px" height="22px" viewBox="0 0 22 22" version="1.1" xmlns="http://www.w3.org/2000/svg" xmlns:xlink="http://www.w3.org/1999/xlink">
    <!-- Generator: Sketch 55.2 (78181) - https://sketchapp.com -->
    <title>Nav-icon-support-24</title>
    <desc>Created with Sketch.</desc>
    <g id="Page-Icons" stroke="none" stroke-width="1" fill="none" fill-rule="evenodd">
        <g id="-Navigation-&amp;-Search" transform="translate(-98.000000, -158.000000)">
            <g id="Nav-icon-support-24" transform="translate(97.000000, 157.000000)">
                <rect id="Rectangle" x="0" y="0" width="24" height="24"></rect>
                <g id="Group-6">
                    <g id="Get-Support">
                        <rect id="Rectangle" x="0" y="0" width="24" height="24"></rect>
                        <path d="M8,23 C7.87985632,23 7.76090186,22.9759135 7.65,22.9291302 C7.4,22.8278877 6.99,22.5140359 6.99,21.5927289 L6.99,17.9682467 L4.77,17.9682467 C2.69178549,17.9682541 1.00551251,16.2655572 1,14.1615278 L1,4.81684307 C1,2.70885885 2.68788649,1 4.77,1 L19.23,1 C21.3121135,1 23,2.70885885 23,4.81684307 L23,14.1615278 C23,15.1738176 22.6028047,16.1446465 21.8957926,16.8604435 C21.1887804,17.5762404 20.2298662,17.9783709 19.23,17.9783709 L13.56,17.9783709 L9.05,22.4634146 C8.78530304,22.7776823 8.40694102,22.9710381 8,23 Z M4.77,2.01242522 C3.24916547,2.03419145 2.0214991,3.27711185 2,4.81684307 L2,14.1615278 C2.00529875,15.7131072 3.23760874,16.9742411 4.77,16.9963185 L5.72,16.9963185 C7.95,16.9963185 7.95,16.9963185 7.95,17.4822826 L7.95,21.5927289 C7.93435184,21.7470394 7.96576038,21.9025002 8.04,22.038196 C8.16716463,21.9657474 8.28476501,21.8773016 8.39,21.7749655 L13.18,16.9963185 L19.24,16.9963185 C20.7684764,16.968788 21.9948016,15.7092319 22,14.1615278 L22,4.81684307 C21.9785009,3.27711185 20.7508345,2.03419145 19.23,2.01242522 L4.77,2.01242522 Z M7.83,8.40082835 L5.91,8.40082835 L5.91,10.3345605 L7.83,10.3345605 L7.83,8.40082835 Z M13.09,8.40082835 L11.17,8.40082835 L11.17,10.3345605 L13.08,10.3345605 L13.09,8.40082835 Z M18.35,8.40082835 L16.44,8.40082835 L16.44,10.3345605 L18.35,10.3345605 L18.35,8.40082835 Z" id="icon" fill="#B1ADA6"></path>
                    </g>
                </g>
            </g>
        </g>
    </g>
</svg>