<?xml version="1.0" encoding="UTF-8"?>
<svg width="14px" height="22px" viewBox="0 0 14 22" version="1.1" xmlns="http://www.w3.org/2000/svg" xmlns:xlink="http://www.w3.org/1999/xlink">
    <!-- Generator: Sketch 55.2 (78181) - https://sketchapp.com -->
    <title>Nav-icon-find-atm-24</title>
    <desc>Created with Sketch.</desc>
    <g id="Page-Icons" stroke="none" stroke-width="1" fill="none" fill-rule="evenodd">
        <g id="-Navigation-&amp;-Search" transform="translate(-236.000000, -158.000000)">
            <g id="Nav-icon-find-atm-24" transform="translate(231.000000, 157.000000)">
                <rect id="Rectangle-Copy" x="0" y="0" width="24" height="24"></rect>
                <g id="icons-/-mastercard-/-CX-/-location" fill="#B1ADA6">
                    <path d="M12.005,22.8684943 L11.585,22.1784943 C11.315,21.7384943 5.085,11.4284943 5.085,7.7884943 C5.22636761,4.0717086 8.28052683,1.1315057 12,1.1315057 C15.7194732,1.1315057 18.7736324,4.0717086 18.915,7.7884943 C18.915,11.4284943 12.685,21.7884943 12.415,22.1784943 L12.005,22.8684943 Z M12.005,1.8684943 C8.74003099,1.87946908 6.09597478,4.52352528 6.085,7.7884943 C6.085,10.6484943 10.585,18.5584943 12.005,20.9684943 C13.425,18.5584943 17.945,10.6484943 17.945,7.7884943 C17.9339805,4.51573607 15.2777768,1.8684943 12.005,1.8684943 Z M12.005,11.6884943 C9.76112019,11.6829539 7.9450492,9.86236471 7.9450492,7.61847806 C7.9450492,5.3745914 9.7611774,3.55402774 12.0050573,3.54850644 C14.2489372,3.54301019 16.0739667,5.35463477 16.085,7.5984943 C16.085,8.67966026 15.6548285,9.71639904 14.8893912,10.4799602 C14.123954,11.2435214 13.0861627,11.6711507 12.005,11.6684943 L12.005,11.6884943 Z M12.005,4.5284943 C10.7524949,4.52446706 9.62145228,5.27692976 9.14121745,6.4337183 C8.66098262,7.59050684 8.92656199,8.92277001 9.81366033,9.80698817 C10.7007587,10.6912063 12.0338785,10.9524517 13.1890992,10.4684575 C14.3443198,9.98446334 15.0931004,8.85097967 15.085,7.5984943 C15.0850651,5.89583205 13.7076533,4.51400453 12.005,4.5084943 L12.005,4.5284943 Z" id="icon"></path>
                </g>
            </g>
        </g>
    </g>
</svg>